<?xml version="1.0" encoding="UTF-8" standalone="no"?>
<!-- Created with Inkscape (http://www.inkscape.org/) -->

<svg
   width="75.382828mm"
   height="88.376854mm"
   viewBox="0 0 75.382828 88.376854"
   version="1.1"
   id="svg1"
   xmlns="http://www.w3.org/2000/svg"
   xmlns:svg="http://www.w3.org/2000/svg">
  <defs
     id="defs1" />
  <g
     id="layer1"
     transform="translate(-107.96308,-20.243906)">
    <path
       id="text2"
       style="font-size:88.1944px;font-family:LitSans;-inkscape-font-specification:LitSans;fill:#120073;stroke-width:0.264583"
       d="M 170.82213,46.79611 132.3697,98.213643 h 30.51493 v 10.407117 h 11.46545 V 98.213643 h 8.99583 v -10.31875 h -8.99583 V 46.79611 Z m -6.7908,23.107117 v 19.226216 h -14.11128 z" />
    <path
       d="m 127.01307,20.243906 -11.81839,19.402951 c -2.82222,4.674298 -7.2316,12.082825 -7.2316,20.461283 0,12.699982 8.73127,23.018745 23.54791,23.018745 13.84651,0 23.54792,-10.495151 23.54792,-23.018745 0,-12.435397 -8.90783,-22.401733 -20.99045,-22.401733 -2.46944,0 -4.9389,0.705902 -6.08542,1.49965 l 11.81788,-18.962151 z m 4.49792,27.869618 c 7.23193,0 12.08247,5.997059 12.08247,12.34705 0,6.085408 -4.85054,11.906251 -12.08247,11.906251 -7.23193,0 -12.08298,-5.820843 -12.08298,-11.906251 0,-6.261796 4.85105,-12.34705 12.08298,-12.34705 z"
       style="font-size:88.1944px;font-family:LitSans;-inkscape-font-specification:LitSans;fill:#120073;stroke-width:0.264583"
       id="path1" />
  </g>
</svg>
